<?xml version="1.0" encoding="UTF-8"?>
<svg id="Layer_1" xmlns="http://www.w3.org/2000/svg" version="1.1" viewBox="0 0 360 360">
  <!-- Generator: Adobe Illustrator 29.6.1, SVG Export Plug-In . SVG Version: 2.1.1 Build 9)  -->
  <defs>
    <style>
      .st0 {
        fill: #fff;
      }

      .st1 {
        fill: #4174b9;
      }
    </style>
  </defs>
  <rect class="st1" x="95" y="94.5" width="144" height="144" rx="21.8" ry="21.8"/>
  <g>
    <g>
      <path class="st0" d="M116.7,209.4v3.2h-6.1v3.4c.8-.9,1.7-1.4,2.9-1.4s2.4.4,3.1,1.2,1,2.2,1,4.4v2.9c0,1.4,0,2.5-.2,3.1s-.4,1.3-.9,1.8c-.4.6-1,1-1.8,1.3s-1.7.5-2.9.5-2.4-.2-3.3-.7c-1-.4-1.6-1.1-2.1-2-.4-.9-.6-2.3-.6-4.1v-1.1h4.9v1.2c0,1.3,0,2.2.1,2.8,0,.5.4.8.9.8s.4,0,.6-.2c.2-.2.2-.3.2-.5,0-.2,0-1,0-2.4v-4c0-.7,0-1.3-.2-1.5-.2-.3-.4-.4-.8-.4s-.4,0-.6.2c-.2.1-.3.3-.3.5,0,.2,0,.5,0,1.1h-4.9l.2-10.1h10.5Z"/>
      <path class="st0" d="M132.1,209.4l-2.9,9,3.2,11h-5.3l-2.1-8.6v8.6h-5.1v-20h5.1v7.8l2.3-7.8h4.8Z"/>
      <path class="st0" d="M149,209.4v4h-3v16h-5.1v-16h-3v-4h11.2Z"/>
      <path class="st0" d="M150.7,209.4h3.6c2.4,0,4,0,4.9.3.9.2,1.6.7,2.1,1.4.5.8.8,2,.8,3.7s-.2,2.6-.6,3.1c-.4.5-1.1.9-2.2,1,1,.3,1.7.6,2,1,.3.4.6.8.6,1.2,0,.4.1,1.3.1,3v5.3h-4.8v-6.6c0-1.1,0-1.7-.2-2-.2-.3-.6-.4-1.3-.4v9h-5.1v-20ZM155.8,212.8v4.4c.6,0,1,0,1.2-.2.2-.2.3-.7.3-1.6v-1.1c0-.6-.1-1-.3-1.2-.2-.2-.6-.3-1.2-.3Z"/>
      <path class="st0" d="M173.4,209.4l2.9,20h-5.2l-.3-3.6h-1.8l-.3,3.6h-5.3l2.6-20h7.4ZM170.7,222.2c-.3-2.3-.5-5.1-.8-8.4-.5,3.8-.8,6.6-1,8.4h1.8Z"/>
      <path class="st0" d="M189.6,218.1h-5.1v-3.5c0-1,0-1.6-.2-1.9-.1-.3-.4-.4-.7-.4s-.7.2-.8.5c-.1.3-.2,1-.2,2v9.3c0,1,0,1.6.2,1.9.1.3.4.4.8.4s.6-.1.7-.4c.1-.3.2-1,.2-2.1v-2.5h5.1v.8c0,2.1-.1,3.5-.4,4.4-.3.9-.9,1.6-1.9,2.3s-2.2,1-3.6,1-2.7-.3-3.7-.8-1.6-1.3-1.9-2.3c-.3-1-.5-2.4-.5-4.4v-5.8c0-1.4,0-2.5.1-3.2,0-.7.4-1.4.9-2.1.5-.7,1.2-1.2,2-1.6.9-.4,1.8-.6,2.9-.6s2.8.3,3.7.9c1,.6,1.6,1.3,1.9,2.2.3.9.5,2.3.5,4.1v1.9Z"/>
      <path class="st0" d="M204.2,209.4l-2.9,9,3.2,11h-5.3l-2.1-8.6v8.6h-5.1v-20h5.1v7.8l2.3-7.8h4.8Z"/>
      <path class="st0" d="M205.8,209.4h8.5v4h-3.4v3.8h3.2v3.8h-3.2v4.4h3.8v4h-8.9v-20Z"/>
      <path class="st0" d="M216.7,209.4h3.6c2.4,0,4,0,4.9.3.9.2,1.6.7,2.1,1.4s.8,2,.8,3.7-.2,2.6-.6,3.1c-.4.5-1.1.9-2.2,1,1,.3,1.7.6,2,1,.3.4.6.8.6,1.2,0,.4.1,1.3.1,3v5.3h-4.8v-6.6c0-1.1,0-1.7-.2-2s-.6-.4-1.3-.4v9h-5.1v-20ZM221.8,212.8v4.4c.6,0,1,0,1.2-.2.2-.2.3-.7.3-1.6v-1.1c0-.6-.1-1-.3-1.2-.2-.2-.6-.3-1.2-.3Z"/>
    </g>
    <path class="st0" d="M191.7,115.5c0-6.8-5.5-12.3-12.3-12.3s-12.3,5.5-12.3,12.3,5.5,12.3,12.3,12.3,12.3-5.5,12.3-12.3ZM151.2,140.1c1.9-1.9,4.5-3,7.2-3s.7,0,1.1,0l-6,18.1c-1.8,5.4.3,11.3,5.2,14.4l16.6,10.4-4.9,17.1c-.9,3.3,1,6.7,4.2,7.6,3.3.9,6.7-1,7.6-4.2l5.5-19.3c1.1-4-.5-8.2-4-10.4l-10.9-6.8,6-15.9,1,2.4c2.9,6.9,9.6,11.4,17.1,11.4h4.1c3.4,0,6.2-2.8,6.2-6.2s-2.8-6.2-6.2-6.2h-4.1c-2.5,0-4.7-1.5-5.7-3.8l-1.2-2.9c-2.8-6.8-8.5-11.9-15.5-14.1l-9.4-2.9c-2.1-.7-4.4-1-6.6-1-6,0-11.7,2.4-15.9,6.6l-4.5,4.5c-2.4,2.4-2.4,6.3,0,8.7s6.3,2.4,8.7,0l4.5-4.5h0ZM144.6,174.1h-11.4c-3.4,0-6.2,2.8-6.2,6.2s2.8,6.2,6.2,6.2h13.4c3.7,0,7-2.2,8.5-5.5l4.7-7.5-1.8-1.2c-3.4-2.1-5.9-5.2-7.3-8.6l-6.1,10.5Z"/>
  </g>
</svg>