<?xml version="1.0" encoding="UTF-8"?>
<svg id="Layer_2" xmlns="http://www.w3.org/2000/svg" viewBox="0 0 1451.56 186.81">
  <defs>
    <style>
      .cls-1 {
        fill: #307fe2;
      }

      .cls-2 {
        fill: #1d4f91;
      }
    </style>
  </defs>
  <g id="Layer_1-2" data-name="Layer_1">
    <g>
      <g>
        <g>
          <path class="cls-2" d="M1205.66,122.18l22.63-30.98h-14.53l-15.62,21.88-15.53-21.88h-14.86l22.71,31.23-23.71,32.48h14.45l16.62-23.38,16.62,23.38h14.95l-23.71-32.73Z"/>
          <path class="cls-1" d="M951.14,49.79v83.42c0,21.04-17.03,38.08-38.08,38.08-2.75,0-5.34-.33-7.93-.84,9.77,10.1,23.38,16.37,38.58,16.37,29.56,0,53.61-23.96,53.61-53.61V49.79h-46.18Z"/>
          <path class="cls-2" d="M913.07,156.25c-12.69,0-22.96-10.27-22.96-22.96v-68.72h45.93v68.72c0,12.69-10.27,22.96-22.96,22.96Z"/>
          <path class="cls-1" d="M1303.94,123.1c0,20.12-14.86,33.65-31.56,33.65-9.6,0-17.62-3.34-23.13-9.1v30.23h-13.36v-86.67h13.36v7.35c5.51-5.76,13.44-9.1,23.13-9.1,16.7,0,31.56,13.61,31.56,33.65ZM1291,123.1c0-13.36-9.1-21.79-20.79-21.79-10.52,0-20.96,8.52-20.96,21.79s10.44,21.79,20.96,21.79c11.69,0,20.79-8.35,20.79-21.79Z"/>
          <path class="cls-1" d="M1377.51,154.92h-13.36v-7.35c-5.51,5.76-13.53,9.1-23.13,9.1-16.7,0-31.56-13.44-31.56-33.65s14.86-33.65,31.56-33.65c9.6,0,17.62,3.34,23.13,9.1v-7.35h13.36v63.8ZM1364.23,123.1c0-13.36-10.44-21.8-20.96-21.8-11.69,0-20.79,8.52-20.79,21.8s9.1,21.79,20.79,21.79c10.52,0,20.96-8.35,20.96-21.79Z"/>
          <path class="cls-2" d="M1150.8,136.71c-4.51,6.76-10.94,8.43-17.2,8.43-9.35,0-17.95-7.1-19.29-18.87h51.6v-4.59c-.67-19.12-14.78-32.23-31.81-32.23-17.95,0-32.98,13.44-32.98,33.74s15.11,33.48,32.48,33.48c14.11,0,25.39-6.68,30.65-20.04h-13.44v.08ZM1134.1,101.22c8.77,0,16.03,5.18,18.12,15.53h-37.49c2-10.27,11.02-15.53,19.37-15.53Z"/>
          <path class="cls-1" d="M1438.62,91.21v30.87c-.08,12.93-10.1,21.09-20.28,21.09-11.32,0-20.12-8.08-20.12-21.09v-30.87h-12.52v30.87c0,19.4,14.39,32.57,30.54,32.57,9.29,0,17.05-3.23,22.39-8.81v1.54c0,11.4-7.36,21.17-18.99,21.17s-15.92-4.85-20.52-12.04l-9.94,6.55c4.93,9.21,12.44,17.21,30.46,17.21,19.23,0,31.92-14.63,31.92-32.57v-56.48h-12.93Z"/>
          <path class="cls-2" d="M1093.43,49.62h-13.03v105.3h13.03V49.62Z"/>
          <path class="cls-2" d="M1050.01,76.42c0-11.19,6.01-15.2,14.03-15.2,3.67,0,6.43.58,8.68,1.5v-11.36c-2.17-.84-5.59-1.75-10.77-1.75-14.2,0-24.72,8.85-24.72,27.22v9.95h-11.11v11.36h11.11v56.68h12.78v-56.68h20.12v-11.36h-20.12v-10.37Z"/>
        </g>
        <path class="cls-2" d="M849.27,100.44l4.71-11.23-9.76-22.32h4.24l7.62,17.85,6.9-17.85h4.05l-13.76,33.56h-4Z"/>
        <path class="cls-2" d="M830.03,92.21c-4.05,0-7-2.05-8.43-4.52v4.09h-3.95v-36.79h3.95v16.09c1.43-2.43,4.81-4.62,8.43-4.62,6.52,0,11.33,4.76,11.33,12.52v.38c0,7.62-4.47,12.85-11.33,12.85ZM829.65,88.92c4.95,0,7.62-3.33,7.62-9.38v-.38c0-6.28-3.47-9.42-7.66-9.42-4.62,0-8.14,3.05-8.14,9.42v.38c0,6.38,3.33,9.38,8.19,9.38Z"/>
        <path class="cls-2" d="M990.97,37.22c-6.52,0-11.23-4.62-11.23-12.38v-.38c0-7.62,4.76-12.99,11.61-12.99,4.14,0,6.71,2,8.14,4.43V0h3.95v36.79h-3.95v-4.28c-1.43,2.43-4.9,4.71-8.52,4.71ZM991.39,33.94c4.62,0,8.23-3.05,8.23-9.42v-.38c0-6.38-3.05-9.38-7.9-9.38s-7.9,3.47-7.9,9.52v.38c0,6.28,3.38,9.28,7.57,9.28Z"/>
        <path class="cls-2" d="M964.72,37.22c-7.04,0-12.04-4.95-12.04-12.61v-.38c0-7.52,4.81-12.76,11.66-12.76,5.76,0,11.19,3.47,11.19,12.38v1.29h-18.75c.19,5.66,2.9,8.81,8,8.81,3.86,0,6.09-1.43,6.62-4.33h3.95c-.86,5-5,7.62-10.61,7.62ZM956.92,21.94h14.57c-.38-5.14-3.05-7.19-7.14-7.19s-6.76,2.76-7.43,7.19Z"/>
        <path class="cls-2" d="M937.34,36.8V11.9h3.95v4.47c1.57-2.81,3.71-4.76,8.19-4.9v3.71c-5,.24-8.19,1.81-8.19,7.95v13.66h-3.95Z"/>
        <path class="cls-2" d="M920.47,37.22c-7.04,0-12.04-4.95-12.04-12.61v-.38c0-7.52,4.81-12.76,11.66-12.76,5.76,0,11.19,3.47,11.19,12.38v1.29h-18.75c.19,5.66,2.9,8.81,8,8.81,3.86,0,6.09-1.43,6.62-4.33h3.95c-.86,5-5,7.62-10.61,7.62ZM912.66,21.94h14.57c-.38-5.14-3.05-7.19-7.14-7.19s-6.76,2.76-7.43,7.19Z"/>
        <path class="cls-2" d="M877.96,36.79l-7.66-24.89h4.28l5.81,20.04,6.05-20.04h3.43l5.66,20.04,5.85-20.04h4.05l-7.76,24.89h-4.38l-5.19-18.66-5.81,18.66h-4.33Z"/>
        <path class="cls-2" d="M855.07,33.94c5,0,8.14-3.76,8.14-9.38v-.33c0-5.76-3.19-9.47-8.14-9.47s-8.14,3.71-8.14,9.42v.38c0,5.66,3.09,9.38,8.14,9.38ZM855.02,37.22c-7.09,0-12.19-5.38-12.19-12.66v-.38c0-7.47,5.19-12.71,12.23-12.71s12.23,5.19,12.23,12.66v.38c0,7.52-5.19,12.71-12.28,12.71Z"/>
        <path class="cls-2" d="M818.02,36.8V2.76h9.66c6.52,0,11.9,2.86,11.9,9.95v.19c0,7.24-5.43,10.04-11.9,10.04h-5.52v13.85h-4.14ZM822.16,19.66h5.81c4.86,0,7.47-2.38,7.47-6.76v-.19c0-4.81-2.86-6.62-7.47-6.62h-5.81v13.57Z"/>
      </g>
      <path class="cls-2" d="M724.69,169.13c-27.05,0-38.92-12.74-41.36-28.1h14.84c2.09,10.47,10.82,15.88,26.35,15.88,17.98,0,29.32-8.55,29.32-28.1v-13.26c-5.24,8.9-17.63,17.28-30.89,17.28-23.91,0-41.54-18.15-41.54-43.28v-1.22c0-24.78,17.45-45.38,42.59-45.38,15.18,0,24.61,7.33,29.84,16.23v-14.66h14.49v85.17c-.17,26.53-18.15,39.44-43.63,39.44ZM724.51,120.78c16.93,0,29.84-11.87,29.84-32.29v-1.22c0-20.42-11.17-32.29-28.97-32.29s-28.97,13.44-28.97,32.64v1.4c0,19.9,12.74,31.76,28.1,31.76Z"/>
      <path class="cls-2" d="M583.9,135.79V44.51h14.49v14.49c4.19-8.55,14.31-16.06,29.32-16.06,18.85,0,32.11,10.3,32.11,36.83v56.02h-14.49v-57.07c0-16.06-6.81-23.21-21.47-23.21-13.44,0-25.48,8.55-25.48,24.96v55.33h-14.49Z"/>
      <path class="cls-2" d="M539.77,135.79V44.51h14.49v91.28h-14.49ZM546.75,25.49c-5.24,0-9.6-4.36-9.6-9.6s4.36-9.6,9.6-9.6,9.6,4.36,9.6,9.6-4.36,9.6-9.6,9.6Z"/>
      <path class="cls-2" d="M477.75,137.36c-25.48,0-44.68-17.98-44.68-46.25v-1.4c0-27.92,19.9-46.77,44.33-46.77,19.02,0,36.83,8.73,39.62,31.94h-14.31c-2.27-14.49-12.74-19.9-25.31-19.9-16.58,0-29.32,13.26-29.32,34.73v1.4c0,22.34,12.22,34.21,29.84,34.21,12.92,0,24.61-7.5,26.18-22.34h13.44c-1.92,19.72-17.8,34.38-39.79,34.38Z"/>
      <path class="cls-2" d="M335.57,135.79V44.51h14.49v14.49c4.19-8.55,14.31-16.06,29.32-16.06,18.85,0,32.11,10.3,32.11,36.83v56.02h-14.49v-57.07c0-16.06-6.81-23.21-21.47-23.21-13.44,0-25.48,8.55-25.48,24.96v55.33h-14.49Z"/>
      <path class="cls-2" d="M264.18,137.36c-16.93,0-30.37-8.2-30.37-26.88,0-21.12,22.34-28.27,45.73-28.27h13.09v-6.63c0-14.49-5.58-20.59-19.55-20.59-12.57,0-19.55,5.24-20.94,16.41h-14.49c1.92-20.77,18.5-28.45,36.13-28.45s33.34,7.16,33.34,32.64v60.21h-14.49v-11.52c-6.81,8.55-15.01,13.09-28.45,13.09ZM265.58,125.84c15.36,0,27.05-7.85,27.05-21.99v-11.34h-12.57c-18.33,0-31.76,4.54-31.76,17.98,0,9.42,4.54,15.36,17.28,15.36Z"/>
      <path class="cls-2" d="M137.01,135.79V44.51h14.49v14.49c4.19-8.55,14.31-16.06,29.32-16.06,18.85,0,32.11,10.3,32.11,36.83v56.02h-14.49v-57.07c0-16.06-6.81-23.21-21.47-23.21-13.44,0-25.48,8.55-25.48,24.96v55.33h-14.49Z"/>
      <path class="cls-2" d="M92.87,135.79V44.51h14.49v91.28h-14.49ZM99.85,25.49c-5.24,0-9.6-4.36-9.6-9.6s4.36-9.6,9.6-9.6,9.6,4.36,9.6,9.6-4.36,9.6-9.6,9.6Z"/>
      <path class="cls-2" d="M0,135.79V11h72.95v12.39H15.18v44.16h45.03v12.39H15.18v55.85H0Z"/>
    </g>
  </g>
</svg>