<svg width="99" height="24" viewBox="0 0 99 24" fill="none" xmlns="http://www.w3.org/2000/svg">
<path d="M55.2003 12.6908L59.1587 7.27319H56.6173L53.8852 11.1008L51.1686 7.27319H48.5696L52.5436 12.7352L48.3944 18.4167H50.9203L53.8276 14.3274L56.7349 18.4167H59.3495L55.2025 12.6908H55.2003Z" fill="#1D4F91"/>
<path d="M10.6726 0.0317383V14.6237C10.6726 18.3049 7.69214 21.2832 4.01311 21.2832C3.53189 21.2832 3.07949 21.2255 2.62488 21.1368C4.33466 22.9043 6.71418 23.9998 9.3731 23.9998C14.5446 23.9998 18.7492 19.8085 18.7492 14.6237V0.0317383H10.6726Z" fill="#307FE2"/>
<path d="M4.01611 18.6543C1.79627 18.6543 0 16.858 0 14.6382V2.61646H8.03444V14.6382C8.03444 16.858 6.23817 18.6543 4.01833 18.6543H4.01611Z" fill="#1D4F91"/>
<path d="M72.3869 12.8546C72.3869 16.374 69.7878 18.7402 66.865 18.7402C65.184 18.7402 63.7825 18.1547 62.82 17.1479V22.4347H60.4827V7.27285H62.82V8.55685C63.7847 7.55005 65.1707 6.9646 66.865 6.9646C69.7856 6.9646 72.3869 9.34633 72.3869 12.8502V12.8546ZM70.1249 12.8546C70.1249 10.5172 68.5326 9.04251 66.488 9.04251C64.6474 9.04251 62.8223 10.5328 62.8223 12.8546C62.8223 15.1765 64.6474 16.6667 66.488 16.6667C68.5326 16.6667 70.1249 15.2053 70.1249 12.8546Z" fill="#307FE2"/>
<path d="M85.2614 18.4212H82.924V17.1349C81.9593 18.1417 80.5578 18.7272 78.879 18.7272C75.9584 18.7272 73.3572 16.3765 73.3572 12.8416C73.3572 9.30674 75.9562 6.95605 78.879 6.95605C80.5578 6.95605 81.9615 7.54151 82.924 8.54831V7.26209H85.2614V18.4212ZM82.9395 12.8549C82.9395 10.5176 81.1144 9.04284 79.2738 9.04284C77.2291 9.04284 75.6369 10.5331 75.6369 12.8549C75.6369 15.1768 77.2291 16.667 79.2738 16.667C81.1144 16.667 82.9395 15.2056 82.9395 12.8549Z" fill="#307FE2"/>
<path d="M45.5974 15.2336C44.8079 16.4156 43.6835 16.7083 42.588 16.7083C40.9514 16.7083 39.4479 15.4664 39.215 13.4085H48.2408V12.6057C48.1232 9.26153 45.655 6.96851 42.6767 6.96851C39.5366 6.96851 36.9065 9.31919 36.9065 12.8696C36.9065 16.42 39.5499 18.7263 42.588 18.7263C45.0562 18.7263 47.0277 17.5576 47.948 15.2203H45.5974V15.2358V15.2336ZM42.6767 9.02646C44.2113 9.02646 45.482 9.93125 45.8457 11.743H39.2882C39.6386 9.94677 41.2153 9.02646 42.6767 9.02646Z" fill="#1D4F91"/>
<path d="M95.9422 7.27541V12.6753C95.9266 14.9351 94.1747 16.3654 92.394 16.3654C90.4159 16.3654 88.8746 14.9506 88.8746 12.6753V7.27541H86.6836V12.6753C86.6836 16.0683 89.2006 18.3724 92.0258 18.3724C93.6514 18.3724 95.0085 17.8069 95.9422 16.8311V17.0995C95.9422 19.0931 94.6559 20.8029 92.6202 20.8029C90.5844 20.8029 89.837 19.9535 89.0298 18.6962L87.2912 19.8404C88.1539 21.4527 89.4667 22.8498 92.6202 22.8498C95.9843 22.8498 98.2041 20.2906 98.2041 17.1527V7.27319H95.9422V7.27541Z" fill="#307FE2"/>
<path d="M35.5642 0H33.2867V18.4173H35.5642V0Z" fill="#1D4F91"/>
<path d="M27.9707 4.68805C27.9707 2.73211 29.0219 2.02912 30.4256 2.02912C31.0687 2.02912 31.5499 2.13113 31.9447 2.29302V0.306033C31.5655 0.15967 30.9667 0 30.0597 0C27.576 0 25.7376 1.5479 25.7376 4.76123V6.50207H23.7949V8.48905H25.7376V18.404H27.9729V8.48905H31.4923V6.50207H27.9729V4.68805H27.9707Z" fill="#1D4F91"/>
</svg>
