<svg width="40" height="40" viewBox="0 0 40 40" fill="none" xmlns="http://www.w3.org/2000/svg">
<path d="M40 20C40 31.0457 31.0457 40 20 40C8.95433 40 0 31.0457 0 20C0 8.95433 8.95433 0 20 0C31.0457 0 40 8.95433 40 20Z" fill="white"/>
<path d="M28.4412 21.5658L20.8963 29.367C20.4025 29.8776 19.5944 29.8776 19.1005 29.367L11.5556 21.5658C9.3673 19.3014 9.48812 15.5568 11.9157 13.4555C14.0358 11.6205 17.2801 11.9515 19.2312 13.9658L20.0003 14.7597L20.7693 13.9658C22.7203 11.9516 25.9646 11.6205 28.0847 13.4554C30.5124 15.5566 30.6333 19.3014 28.4412 21.5658H28.4412Z" fill="white" stroke="#10559A" stroke-width="2"/>
</svg>
