<svg width="16" height="16" viewBox="0 0 16 16" fill="none" xmlns="http://www.w3.org/2000/svg">
<path d="M8 1.01062C4.13428 1.01062 1 4.14127 1 8.00001C1 11.861 4.13428 14.9894 8 14.9894C11.8657 14.9894 15 11.861 15 8.00001C15 4.14127 11.8657 1.01062 8 1.01062ZM8 13.6366C4.88015 13.6366 2.35484 11.1162 2.35484 8.00001C2.35484 4.88593 4.88026 2.36341 8 2.36341C11.1187 2.36341 13.6452 4.88497 13.6452 8.00001C13.6452 11.1151 11.1209 13.6366 8 13.6366ZM8 4.11075C8.65473 4.11075 9.18548 4.64071 9.18548 5.29444C9.18548 5.94817 8.65473 6.47813 8 6.47813C7.34527 6.47813 6.81452 5.94817 6.81452 5.29444C6.81452 4.64071 7.34527 4.11075 8 4.11075ZM9.58064 11.2692C9.58064 11.456 9.42899 11.6074 9.24193 11.6074H6.75806C6.57101 11.6074 6.41935 11.456 6.41935 11.2692V10.5928C6.41935 10.4061 6.57101 10.2547 6.75806 10.2547H7.09677V8.45094H6.75806C6.57101 8.45094 6.41935 8.29951 6.41935 8.11274V7.43635C6.41935 7.24958 6.57101 7.09815 6.75806 7.09815H8.56452C8.75157 7.09815 8.90323 7.24958 8.90323 7.43635V10.2547H9.24193C9.42899 10.2547 9.58064 10.4061 9.58064 10.5928V11.2692Z" fill="#10559A"/>
</svg>
